<svg id="Group_23995" data-name="Group 23995" xmlns="http://www.w3.org/2000/svg" width="14" height="14" viewBox="0 0 14 14">
  <rect id="Rectangle_28235" data-name="Rectangle 28235" width="14" height="14" fill="none"/>
  <g id="Group_23994" data-name="Group 23994" transform="translate(2 1.905)">
    <g id="Group_22664" data-name="Group 22664" transform="translate(0 0)">
      <path id="Path_20521" data-name="Path 20521" d="M10.1,1.637H8.155a.818.818,0,0,1-.777-.56L7.205.56A.818.818,0,0,0,6.429,0H3.941a.818.818,0,0,0-.777.56l-.172.518a.818.818,0,0,1-.777.56H.273a.273.273,0,0,0,0,.546h.836l.427,6.4A1.915,1.915,0,0,0,3.442,10.37H6.928A1.915,1.915,0,0,0,8.834,8.587l.427-6.4H10.1a.273.273,0,0,0,0-.546M3.682.732A.273.273,0,0,1,3.941.546H6.429a.272.272,0,0,1,.259.187l.173.518a1.362,1.362,0,0,0,.2.387H3.306a1.366,1.366,0,0,0,.2-.387ZM8.289,8.55A1.368,1.368,0,0,1,6.928,9.824H3.442A1.368,1.368,0,0,1,2.081,8.55L1.656,2.183h.559a1.369,1.369,0,0,0,.173-.014.262.262,0,0,0,.068.014H7.914a.262.262,0,0,0,.068-.014,1.369,1.369,0,0,0,.173.014h.559ZM6.549,4.639V7.368a.273.273,0,0,1-.546,0V4.639a.273.273,0,1,1,.546,0m-2.183,0V7.368a.273.273,0,0,1-.546,0V4.639a.273.273,0,1,1,.546,0" fill="#fff"/>
    </g>
  </g>
</svg>
