<svg xmlns="http://www.w3.org/2000/svg" width="18.947" height="23.98" viewBox="0 0 18.947 23.98">
  <path id="Path_17745" data-name="Path 17745" d="M940.409,243.833a6.316,6.316,0,1,0-6.316-6.316,6.316,6.316,0,0,0,6.316,6.316m0-11.368a5.053,5.053,0,1,1-5.053,5.053,5.053,5.053,0,0,1,5.053-5.053m9.474,18.273v1.278a4.451,4.451,0,0,1-1.134,2.975.632.632,0,0,1-.941-.842,3.19,3.19,0,0,0,.812-2.133v-1.278a4.434,4.434,0,0,0-3.324-4.33,1.608,1.608,0,0,0-1.176.154,7.653,7.653,0,0,1-7.415,0,1.6,1.6,0,0,0-1.18-.157,4.434,4.434,0,0,0-3.326,4.33v1.278a3.19,3.19,0,0,0,.812,2.133.632.632,0,0,1-.941.842,4.451,4.451,0,0,1-1.134-2.975v-1.278a5.7,5.7,0,0,1,4.28-5.555,2.877,2.877,0,0,1,2.109.281,6.381,6.381,0,0,0,6.175,0,2.872,2.872,0,0,1,2.1-.278,5.7,5.7,0,0,1,4.279,5.555" transform="translate(-930.936 -231.201)" fill="#c8c8c7"/>
</svg>
