<svg xmlns="http://www.w3.org/2000/svg" width="25.502" height="25.612" viewBox="0 0 25.502 25.612">
  <g id="Group_3" data-name="Group 3" transform="translate(-352.734 -322.453)">
    <path id="Vector" d="M6.984,24H17.016a4.906,4.906,0,0,0,5.016-4.787V13.36a3.132,3.132,0,0,1,.984-2.266,3.113,3.113,0,0,0-.4-4.857L14.951.916a5.212,5.212,0,0,0-5.9,0L1.383,6.236a3.113,3.113,0,0,0-.4,4.857,3.132,3.132,0,0,1,.984,2.266v5.853A4.906,4.906,0,0,0,6.984,24Z" transform="translate(353.486 323.313)" fill="none" stroke="#c8c8c7" stroke-width="1.5"/>
    <path id="Vector-2" data-name="Vector" d="M6,14c3.172,1.345,4.936,1.321,8,0" transform="translate(355.486 326.26)" fill="none" stroke="#c8c8c7" stroke-width="1.5"/>
  </g>
</svg>
