<svg fill="none" height="22" viewBox="0 0 22 22" width="22" xmlns="http://www.w3.org/2000/svg"><path clip-rule="evenodd" d="m4.59 1.75c-.50813 0-1.02707.20593-1.55386.72449l-.00568.00559-.00579.00547c-.45476.42901-.76961.898-.96675 1.39904l-.00155.00396c-.20222.50554-.30637 1.06033-.30637 1.65145 0 .92267.21266 1.91326.66075 2.97784.45432 1.06927 1.08408 2.16006 1.87683 3.26246.80592 1.1067 1.70994 2.1666 2.7128 3.1794 1.01315 1.0032 2.07375 1.9078 3.19182 2.7245 1.0988.8 2.1995 1.4304 3.2918 1.8958 1.0747.4579 2.0646.67 2.966.67.6048 0 1.1564-.1118 1.6615-.3223l.0041-.0017c.3568-.1462.6881-.3524 1.0022-.6279.1185-.104.2352-.2184.3502-.344l.315-.3982c.0987-.1463.1841-.298.2588-.4562.1235-.2614.1782-.5222.1782-.7697 0-.1611-.0321-.3124-.1011-.4882-.0469-.1018-.1276-.2056-.2858-.3152l-.0073-.005-3.3036-2.3455c-.2194-.1488-.4006-.2483-.5562-.3119-.1422-.0582-.2459-.0742-.326-.0742-.0962 0-.1928.0232-.32.1006l-.0212.0129-.0219.0114c-.138.0721-.3169.2058-.5366.4254l-.0035.0035-.7586.7486c-.2427.2417-.5597.3876-.9382.3876-.1481 0-.3237-.0167-.5133-.0878l-.0162-.006-.0159-.0068c-.0454-.0195-.0873-.0388-.1146-.0514-.0324-.0148-.0434-.0196-.0485-.0216l-.0371-.0149-.0353-.0187c-.4055-.2146-.8814-.5515-1.4236-1.0103l-.0009-.0008c-.5495-.4665-1.08392-.9705-1.62995-1.5064l-.00505-.005-.00496-.005c-.53341-.5437-1.02414-1.0857-1.48177-1.6145l-.00545-.0063c-.45326-.5357-.8004-1.0104-1.01584-1.40536l-.03198-.05862-.02102-.06306c-.00001 0-.00256-.00702-.01556-.03773-.00109-.00259-.00227-.00536-.00351-.00831-.01247-.02939-.03215-.0758-.05176-.12808l-.015-.04-.01036-.04144c-.03231-.12925-.05239-.26085-.05239-.4119 0-.33922.1156-.66301.37359-.92421l.76095-.79099.00513-.00513c.20602-.20602.34929-.39282.43741-.54871l.00597-.01056.0063-.01036c.07579-.12451.10065-.23101.10065-.32004 0-.06425-.01859-.17278-.07936-.31456l-.0049-.01143c-.06338-.15493-.16156-.33352-.31439-.54578l-.00305-.00424-2.32498-3.27705c-.09755-.1409-.21903-.23739-.36761-.30597l-.0103-.00475c-.14231-.06831-.31043-.10622-.48541-.10622zm-2.60042-.35011c.75195-.737908 1.63101-1.14989 2.60042-1.14989.38318 0 .77311.081382 1.12941.251397.36814.170891.70368.432532.96455.807823l2.3163 3.26478c.20503.28506.36544.56396.48157.84635.11789.27675.19817.58609.19817.89965 0 .38687-.11274.75663-.31295 1.08939-.17027.29845-.40278.58628-.67142.85563l-.68875.71594c.00697.01647.01633.03872.02645.06453.14967.26238.41469.63173.81656 1.10691.44012.5085.90688 1.0237 1.41051 1.5373.5319.5219 1.0357.9961 1.5444 1.4281.481.4069.8558.6663 1.1282.8144.022.0095.0423.0187.0588.0262l.6897-.6806c.2735-.2732.5667-.514.8797-.6812.327-.1947.6835-.3066 1.0788-.3066.2999 0 .5962.064.894.1858.2829.1158.5599.2751.8377.464l.0063.0043 3.3129 2.352c.3546.2464.6325.5584.8056.9518l.0051.0117.0048.0119c.1274.3185.2136.6636.2136 1.0585 0 .4725-.1053.9517-.3218 1.4103-.1103.2335-.2395.4618-.3916.6837-.1224.1785-.2588.3518-.4109.5196-.1563.1723-.3192.3334-.4887.4821-.4314.3785-.9027.675-1.4205.8874-.6943.289-1.442.4369-2.2365.4369-1.1386 0-2.3287-.2679-3.554-.79-1.2075-.5145-2.4065-1.2039-3.58745-2.0637l-.00093-.0007c-1.18091-.8625-2.29938-1.817-3.36538-2.8727l-.00515-.0051c-1.05562-1.0659-2.01032-2.1846-2.86341-3.3564l-.00254-.0034c-.8464-1.1767-1.53604-2.365-2.04144-3.55477l-.00093-.00219c-.511578-1.21499-.77877-2.40403-.77877-3.56104 0-.76816.135604-1.51268.412859-2.20658.282008-.71589.724971-1.36438 1.326721-1.93353z" fill="#8a8b8d" fill-rule="evenodd"/></svg>