<svg width="20" height="18" viewBox="0 0 20 18" fill="none" xmlns="http://www.w3.org/2000/svg">
<path d="M17.9999 2H14.8299L12.9999 0H6.99988L5.16988 2H1.99988C0.899878 2 -0.00012207 2.9 -0.00012207 4V16C-0.00012207 17.1 0.899878 18 1.99988 18H17.9999C19.0999 18 19.9999 17.1 19.9999 16V4C19.9999 2.9 19.0999 2 17.9999 2ZM17.9999 16H1.99988V4H6.04988L7.87988 2H12.1199L13.9499 4H17.9999V16ZM9.99988 5C7.23988 5 4.99988 7.24 4.99988 10C4.99988 12.76 7.23988 15 9.99988 15C12.7599 15 14.9999 12.76 14.9999 10C14.9999 7.24 12.7599 5 9.99988 5ZM9.99988 13C8.34988 13 6.99988 11.65 6.99988 10C6.99988 8.35 8.34988 7 9.99988 7C11.6499 7 12.9999 8.35 12.9999 10C12.9999 11.65 11.6499 13 9.99988 13Z" fill="#A3A9B6"/>
</svg>
