<svg xmlns="http://www.w3.org/2000/svg" width="26.51" height="24" viewBox="0 0 26.51 24">
  <path id="Vector" d="M6.745-.75a7.215,7.215,0,0,1,5.317,2.361l.443.476.443-.476a7.167,7.167,0,0,1,10.634,0A8.231,8.231,0,0,1,25.76,7.249a8.231,8.231,0,0,1-2.178,5.638L14.941,22.17a3.29,3.29,0,0,1-4.874,0L1.428,12.888A8.231,8.231,0,0,1-.75,7.249,8.231,8.231,0,0,1,1.428,1.611,7.215,7.215,0,0,1,6.745-.75ZM12.5,3.829a.706.706,0,0,1-.517-.225l-.96-1.031a5.756,5.756,0,0,0-8.567,0,6.974,6.974,0,0,0,0,9.353L11.1,21.209a1.879,1.879,0,0,0,2.807,0l8.641-9.283a6.974,6.974,0,0,0,0-9.353,5.756,5.756,0,0,0-8.567,0L13.022,3.6a.706.706,0,0,1-.522.229Z" transform="translate(0.75 0.75)" fill="#c8c8c7"/>
</svg>
