<svg fill="none" height="20" viewBox="0 0 20 20" width="20" xmlns="http://www.w3.org/2000/svg"><g fill="#315faa"><path d="m7.44199 1.6665h-3.25833c-1.68333 0-2.51667.83334-2.51667 2.51667v3.26667c0 1.71666.83334 2.55 2.51667 2.50833h3.26667c1.71666.04167 2.54997-.79167 2.50833-2.51667v-3.25833c.04164-1.68333-.79167-2.51667-2.51667-2.51667zm.06667 6.46667c-.56667 0-1.11667-.21667-1.575-.6-.51667.375-1.14167.6-1.81667.6-.34166 0-.625-.28333-.625-.625s.28334-.625.625-.625c.85 0 1.55834-.58333 1.81667-1.38333h-1.81667c-.34166 0-.625-.28334-.625-.625 0-.34167.28334-.625.625-.625h1.075c.03334-.31667.29167-.56667.61667-.56667s.58333.25.61667.56667h.21666.01667.01667.825c.34166 0 .625.28333.625.625 0 .34166-.275.625-.625.625h-.275c-.075.4-.23334.775-.44167 1.11666.225.16667.46667.26667.725.26667.34167 0 .625.28333.625.625s-.28333.625-.625.625z"/><path d="m7.50033 18.9583c-3.55834 0-6.45834-2.9-6.45834-6.4583 0-.3417.28334-.625.625-.625.34167 0 .625.2833.625.625 0 2.4667 1.71667 4.5333 4.025 5.075l-.225-.375c-.175-.3-.08333-.6833.21667-.8583.29167-.175.68333-.0834.85833.2166l.875 1.4584c.11667.1916.11667.4333.00834.625-.11667.1916-.325.3166-.55.3166z"/><path d="m18.3337 8.12484c-.3417 0-.625-.28334-.625-.625 0-2.46667-1.7167-4.53334-4.025-5.075l.225.375c.175.3.0833.68333-.2167.85833-.2916.175-.6833.08333-.8583-.21667l-.875-1.45833c-.1167-.19167-.1167-.43333-.0083-.625.1166-.19167.325-.31667.55-.31667 3.5583 0 6.4583 2.9 6.4583 6.45834 0 .34166-.2833.625-.625.625z"/><path d="m14.0995 9.875c-2.3333 0-4.23329 1.8917-4.23329 4.2333 0 2.3334 1.89169 4.2334 4.23329 4.2334 2.3334 0 4.2334-1.8917 4.2334-4.2334 0-2.3416-1.8917-4.2333-4.2334-4.2333zm2.0667 6.2417c-.3083.15-.6833.0333-.8417-.2834l-.1416-.2833h-2.1584l-.1416.2833c-.1084.2167-.3334.3417-.5584.3417-.0916 0-.1916-.025-.275-.0667-.3083-.1583-.4333-.5333-.2833-.8416l1.7833-3.5584c.1084-.2083.325-.3416.5584-.3416.2333 0 .45.1333.5583.35l1.7833 3.5583c.15.3083.025.6833-.2833.8417z"/><path d="m13.6504 14.2999h.9083l-.4583-.9083z"/></g></svg>