<svg id="Group_22495" data-name="Group 22495" xmlns="http://www.w3.org/2000/svg" width="21.145" height="7.34" viewBox="0 0 21.145 7.34">
  <g id="Group_22494" data-name="Group 22494">
    <path id="Path_20511" data-name="Path 20511" d="M20.07,1.075A3.66,3.66,0,0,0,17.474,0H6.311a3.571,3.571,0,0,0-1.6.389h0A2.656,2.656,0,0,0,4.227.7a3.245,3.245,0,0,1,.487.022,1.24,1.24,0,0,1,.83.351.757.757,0,0,1-.411,1.207.892.892,0,0,1-.418.033c-.694-.105-1.244-.931-2.052-.431C1.7,2.483,1.5,3.3,0,2.792A2.1,2.1,0,0,0,1.439,4.42c1.075.392,2.132-1.07,2.909.311.329.586-.149,1.835-1.666,1.34a3.616,3.616,0,0,0,2.4,1.243,4.454,4.454,0,0,0,.462.025H17.474a3.67,3.67,0,0,0,2.6-6.265" fill="#ee1b24"/>
    <path id="Path_20512" data-name="Path 20512" d="M902.582,241.9,902,245.4h-.806l.24-1.453h-1.254l-.24,1.453h-.806l.585-3.506h.806l-.231,1.378h1.254l.231-1.378Z" transform="translate(-891.977 -239.972)" fill="#fff"/>
    <path id="Path_20513" data-name="Path 20513" d="M1354.445,239.025a1.26,1.26,0,0,1-.493-.519,1.639,1.639,0,0,1-.175-.769,2.346,2.346,0,0,1,.25-1.1,1.857,1.857,0,0,1,.7-.752,1.915,1.915,0,0,1,1.012-.27,1.481,1.481,0,0,1,.745.182,1.246,1.246,0,0,1,.5.514,1.613,1.613,0,0,1,.174.762,2.376,2.376,0,0,1-.25,1.1,1.862,1.862,0,0,1-.7.759,1.922,1.922,0,0,1-1.019.272,1.442,1.442,0,0,1-.738-.185m1.408-.774a1.113,1.113,0,0,0,.365-.457,1.493,1.493,0,0,0,.13-.622.8.8,0,0,0-.189-.564.682.682,0,0,0-.528-.2.923.923,0,0,0-.55.17,1.115,1.115,0,0,0-.368.452,1.47,1.47,0,0,0-.13.622.81.81,0,0,0,.189.567.684.684,0,0,0,.533.207.912.912,0,0,0,.547-.17" transform="translate(-1343.008 -233.745)" fill="#fff"/>
    <path id="Path_20514" data-name="Path 20514" d="M1837.778,241.9l-.108.674h-.882l-.472,2.832h-.806l.472-2.832h-.877l.113-.674Z" transform="translate(-1820.505 -239.972)" fill="#fff"/>
  </g>
</svg>
