<svg xmlns="http://www.w3.org/2000/svg" width="18" height="19.5" viewBox="0 0 18 19.5">
  <g id="Filter_Icon" data-name="Filter/Icon" transform="translate(0 0.75)">
    <g id="Huge-icon_interface_outline_filter_7" data-name="Huge-icon/interface/outline/filter 7">
      <path id="Vector" d="M6,16a2,2,0,1,1-2-2A2,2,0,0,1,6,16Z" fill="none" stroke="#828a89" stroke-width="1.5"/>
      <path id="Vector-2" data-name="Vector" d="M16,9a2,2,0,1,1-2-2A2,2,0,0,1,16,9Z" fill="none" stroke="#828a89" stroke-width="1.5"/>
      <path id="Vector-3" data-name="Vector" d="M11,2A2,2,0,1,1,9,0,2,2,0,0,1,11,2Z" fill="none" stroke="#828a89" stroke-width="1.5"/>
      <path id="Vector-4" data-name="Vector" d="M0,2H7M0,9H9m7,0h2M11,2h7M9,16h9M0,16H2" fill="none" stroke="#828a89" stroke-width="1.5"/>
    </g>
  </g>
</svg>
