<svg xmlns="http://www.w3.org/2000/svg" width="21.469" height="16.945" viewBox="0 0 21.469 16.945">
  <path id="Path_20239" data-name="Path 20239" d="M20.919,10.49C19.463,8.066,16.206,4,10.734,4S2.006,8.066.55,10.49a3.849,3.849,0,0,0,0,3.966c1.456,2.424,4.714,6.49,10.184,6.49s8.729-4.066,10.184-6.49a3.846,3.846,0,0,0,0-3.966m-.969,3.384c-1.332,2.219-4.3,5.941-9.215,5.941s-7.883-3.723-9.215-5.941a2.72,2.72,0,0,1,0-2.8c1.333-2.218,4.3-5.941,9.215-5.941s7.883,3.722,9.215,5.941a2.719,2.719,0,0,1,0,2.8m-9.215-5.92a4.519,4.519,0,1,0,4.519,4.519,4.524,4.524,0,0,0-4.519-4.519m0,7.908a3.389,3.389,0,1,1,3.389-3.389,3.393,3.393,0,0,1-3.389,3.389" transform="translate(0 -4)" fill="#f86b34"/>
</svg>
