<svg xmlns="http://www.w3.org/2000/svg" width="21.469" height="19.204" viewBox="0 0 21.469 19.204">
  <path id="Path_20238" data-name="Path 20238" d="M212.92,7.617A15.782,15.782,0,0,0,209.5,3.632L212.168.964a.565.565,0,0,0-.8-.8l-6.249,6.249h0v0L193.295,18.24a.565.565,0,1,0,.8.8l2.774-2.774a10.419,10.419,0,0,0,5.867,1.809c5.449,0,8.72-4.063,10.186-6.488a3.862,3.862,0,0,0,0-3.97m-6.8,1.985a3.393,3.393,0,0,1-3.389,3.389,3.324,3.324,0,0,1-1.955-.635l4.709-4.709a3.323,3.323,0,0,1,.635,1.955m5.831,1.4c-1.342,2.219-4.323,5.941-9.218,5.941a9.287,9.287,0,0,1-5.036-1.511l2.28-2.28a4.434,4.434,0,0,0,2.754.966A4.524,4.524,0,0,0,207.25,9.6a4.434,4.434,0,0,0-.966-2.754L208.7,4.431A14.53,14.53,0,0,1,211.95,8.2a2.73,2.73,0,0,1,0,2.806m-17.893,2.69a16.506,16.506,0,0,1-1.509-2.106,3.864,3.864,0,0,1,0-3.971c1.466-2.425,4.737-6.489,10.186-6.489a10.673,10.673,0,0,1,3.11.465.565.565,0,0,1-.325,1.082,9.539,9.539,0,0,0-2.785-.417c-4.895,0-7.876,3.722-9.218,5.941a2.733,2.733,0,0,0,0,2.807,15.331,15.331,0,0,0,1.4,1.958.565.565,0,1,1-.863.729m7.966-8.548a.565.565,0,1,1,.172,1.116,3.385,3.385,0,0,0-2.8,2.8.565.565,0,0,1-.558.479.606.606,0,0,1-.087-.006.565.565,0,0,1-.472-.644,4.525,4.525,0,0,1,3.749-3.749" transform="translate(-192 0)" fill="#f86b34"/>
</svg>
